<svg width="1529" height="444" viewBox="0 0 1529 444" fill="none" xmlns="http://www.w3.org/2000/svg">
<path d="M390.41 77.2298C349.75 30.1198 289.64 0.259766 222.52 0.259766C100.04 0.259766 0.76001 99.5597 0.76001 222.02C0.76001 260.45 10.55 296.58 27.73 328.09C65.34 397.01 138.47 443.79 222.52 443.79C345 443.79 444.29 344.5 444.29 222.02C444.29 166.67 423.96 116.09 390.41 77.2398V77.2298Z" fill="#E6E4DD"/>
<path d="M333.4 29.9707H111.64L0.75 222.021L111.64 414.081H333.4L444.28 222.021L333.4 29.9707Z" fill="#00AEEF"/>
<path d="M388.85 125.991L222.52 29.9707L56.1899 125.991V318.051L222.52 414.081L388.85 318.051V125.991Z" fill="#0138A1"/>
<path d="M251.11 313.13L226.09 130.94L151.03 130.83C145.01 130.83 139.42 135.73 138.61 141.68L115.11 312.83L165 312.81L183.02 181.57L200.9 312.81L251.11 313.13Z" fill="white"/>
<path d="M329.92 313.491L280.01 313.421L255.03 130.561L303.96 130.581L329.92 313.491Z" fill="#00AEEF"/>
<path d="M551.53 202.141C549.42 197.511 545.29 195.191 539.13 195.191C531.98 195.191 527.17 197.511 524.71 202.141C523.36 204.781 522.69 208.711 522.69 213.921V271.611H497.27V175.931H521.63V189.911C524.74 184.931 527.67 181.381 530.42 179.271C535.29 175.521 541.59 173.641 549.33 173.641C556.66 173.641 562.58 175.251 567.09 178.481C570.73 181.471 573.48 185.311 575.36 190.001C578.64 184.371 582.72 180.241 587.58 177.601C592.74 174.961 598.49 173.641 604.82 173.641C609.04 173.641 613.2 174.461 617.31 176.101C621.42 177.741 625.14 180.611 628.48 184.721C631.18 188.061 632.99 192.171 633.93 197.031C634.52 200.251 634.81 204.971 634.81 211.191L634.63 271.611H608.95V210.581C608.95 206.941 608.36 203.951 607.19 201.611C604.96 197.151 600.86 194.931 594.88 194.931C587.96 194.931 583.18 197.801 580.55 203.551C579.2 206.601 578.53 210.261 578.53 214.541V271.621H553.29V214.541C553.29 208.851 552.7 204.721 551.53 202.141Z" fill="#0138A1"/>
<path d="M731.97 187.89C740.06 198.03 744.11 210.02 744.11 223.86C744.11 237.7 740.06 249.96 731.97 259.96C723.88 269.96 711.6 274.95 695.12 274.95C678.64 274.95 666.36 269.95 658.27 259.96C650.18 249.96 646.13 237.93 646.13 223.86C646.13 209.79 650.18 198.03 658.27 187.89C666.36 177.75 678.64 172.68 695.12 172.68C711.6 172.68 723.88 177.75 731.97 187.89ZM695.03 193.87C687.7 193.87 682.06 196.46 678.1 201.65C674.14 206.84 672.16 214.24 672.16 223.86C672.16 233.48 674.14 240.89 678.1 246.11C682.06 251.33 687.7 253.94 695.03 253.94C702.36 253.94 707.99 251.33 711.92 246.11C715.85 240.89 717.81 233.48 717.81 223.86C717.81 214.24 715.85 206.84 711.92 201.65C707.99 196.46 702.36 193.87 695.03 193.87Z" fill="#0138A1"/>
<path d="M876.6 187.89C884.69 198.03 888.74 210.02 888.74 223.86C888.74 237.7 884.69 249.96 876.6 259.96C868.51 269.96 856.23 274.95 839.75 274.95C823.27 274.95 810.99 269.95 802.9 259.96C794.81 249.96 790.76 237.93 790.76 223.86C790.76 209.79 794.81 198.03 802.9 187.89C810.99 177.75 823.27 172.68 839.75 172.68C856.23 172.68 868.51 177.75 876.6 187.89ZM839.66 193.87C832.33 193.87 826.69 196.46 822.73 201.65C818.77 206.84 816.79 214.24 816.79 223.86C816.79 233.48 818.77 240.89 822.73 246.11C826.69 251.33 832.33 253.94 839.66 253.94C846.99 253.94 852.62 251.33 856.55 246.11C860.48 240.89 862.44 233.48 862.44 223.86C862.44 214.24 860.48 206.84 856.55 201.65C852.62 196.46 846.99 193.87 839.66 193.87Z" fill="#0138A1"/>
<path d="M954.67 202.141C952.56 197.511 948.43 195.191 942.27 195.191C935.12 195.191 930.31 197.511 927.85 202.141C926.5 204.781 925.83 208.711 925.83 213.921V271.611H900.41V175.931H924.77V189.911C927.88 184.931 930.81 181.381 933.56 179.271C938.43 175.521 944.73 173.641 952.47 173.641C959.8 173.641 965.72 175.251 970.23 178.481C973.87 181.471 976.62 185.311 978.5 190.001C981.78 184.371 985.86 180.241 990.72 177.601C995.88 174.961 1001.63 173.641 1007.96 173.641C1012.18 173.641 1016.34 174.461 1020.45 176.101C1024.55 177.741 1028.28 180.611 1031.62 184.721C1034.32 188.061 1036.13 192.171 1037.07 197.031C1037.66 200.251 1037.95 204.971 1037.95 211.191L1037.77 271.611H1012.09V210.581C1012.09 206.941 1011.5 203.951 1010.33 201.611C1008.1 197.151 1004 194.931 998.02 194.931C991.1 194.931 986.32 197.801 983.69 203.551C982.34 206.601 981.67 210.261 981.67 214.541V271.621H956.43V214.541C956.43 208.851 955.84 204.721 954.67 202.141Z" fill="#00AEEF"/>
<path d="M1135.1 187.89C1143.19 198.03 1147.24 210.02 1147.24 223.86C1147.24 237.7 1143.19 249.96 1135.1 259.96C1127.01 269.96 1114.73 274.95 1098.25 274.95C1081.77 274.95 1069.49 269.95 1061.4 259.96C1053.31 249.96 1049.26 237.93 1049.26 223.86C1049.26 209.79 1053.31 198.03 1061.4 187.89C1069.49 177.75 1081.77 172.68 1098.25 172.68C1114.73 172.68 1127.01 177.75 1135.1 187.89ZM1098.17 193.87C1090.84 193.87 1085.2 196.46 1081.24 201.65C1077.28 206.84 1075.3 214.24 1075.3 223.86C1075.3 233.48 1077.28 240.89 1081.24 246.11C1085.2 251.33 1090.84 253.94 1098.17 253.94C1105.5 253.94 1111.13 251.33 1115.06 246.11C1118.99 240.89 1120.95 233.48 1120.95 223.86C1120.95 214.24 1118.99 206.84 1115.06 201.65C1111.13 196.46 1105.5 193.87 1098.17 193.87Z" fill="#00AEEF"/>
<path d="M1225.4 180.15C1232.9 184.96 1237.21 193.22 1238.33 204.95H1213.27C1212.92 201.73 1212.01 199.17 1210.54 197.3C1207.78 193.9 1203.09 192.2 1196.47 192.2C1191.02 192.2 1187.13 193.05 1184.82 194.75C1182.5 196.45 1181.35 198.44 1181.35 200.73C1181.35 203.6 1182.58 205.68 1185.04 206.97C1187.5 208.32 1196.21 210.63 1211.16 213.92C1221.13 216.27 1228.6 219.81 1233.59 224.56C1238.51 229.37 1240.98 235.38 1240.98 242.59C1240.98 252.09 1237.45 259.84 1230.38 265.85C1223.32 271.86 1212.4 274.86 1197.62 274.86C1182.84 274.86 1171.43 271.68 1164.25 265.32C1157.07 258.96 1153.48 250.85 1153.48 241H1178.9C1179.43 245.46 1180.57 248.62 1182.33 250.5C1185.44 253.84 1191.18 255.51 1199.57 255.51C1204.49 255.51 1208.41 254.78 1211.31 253.31C1214.21 251.84 1215.66 249.65 1215.66 246.71C1215.66 243.77 1214.49 241.76 1212.14 240.29C1209.79 238.82 1201.09 236.3 1186.02 232.73C1175.17 230.03 1167.52 226.66 1163.07 222.62C1158.61 218.63 1156.39 212.89 1156.39 205.38C1156.39 196.53 1159.86 188.92 1166.81 182.56C1173.76 176.2 1183.53 173.02 1196.14 173.02C1208.75 173.02 1217.86 175.39 1225.43 180.14L1225.4 180.15Z" fill="#00AEEF"/>
<path d="M1259.81 186.131C1266.44 177.691 1277.81 173.471 1293.93 173.471C1304.42 173.471 1313.75 175.551 1321.9 179.711C1330.05 183.871 1334.12 191.731 1334.12 203.281V247.251C1334.12 250.301 1334.18 253.991 1334.3 258.331C1334.48 261.611 1334.97 263.841 1335.8 265.011C1336.62 266.181 1337.85 267.151 1339.49 267.911V271.601H1312.23C1311.47 269.671 1310.94 267.851 1310.65 266.151C1310.36 264.451 1310.12 262.511 1309.95 260.351C1306.49 264.101 1302.5 267.301 1297.99 269.941C1292.6 273.051 1286.5 274.601 1279.7 274.601C1271.02 274.601 1263.86 272.121 1258.2 267.171C1252.54 262.221 1249.71 255.191 1249.71 246.111C1249.71 234.331 1254.25 225.791 1263.34 220.521C1268.32 217.651 1275.65 215.601 1285.33 214.361L1293.86 213.301C1298.49 212.711 1301.8 211.981 1303.8 211.101C1307.38 209.581 1309.16 207.201 1309.16 203.981C1309.16 200.051 1307.8 197.341 1305.07 195.851C1302.34 194.351 1298.34 193.611 1293.07 193.611C1287.15 193.611 1282.96 195.081 1280.49 198.011C1278.73 200.181 1277.56 203.111 1276.97 206.801H1252.79C1253.32 198.421 1255.66 191.531 1259.83 186.131H1259.81ZM1278.45 253.501C1280.8 255.431 1283.67 256.401 1287.07 256.401C1292.46 256.401 1297.43 254.821 1301.98 251.651C1306.52 248.481 1308.88 242.711 1309.06 234.321V225.001C1307.48 226.001 1305.88 226.801 1304.27 227.421C1302.66 228.041 1300.44 228.611 1297.63 229.131L1292 230.191C1286.72 231.131 1282.94 232.271 1280.66 233.621C1276.79 235.911 1274.86 239.451 1274.86 244.261C1274.86 248.541 1276.06 251.621 1278.47 253.491L1278.45 253.501Z" fill="#00AEEF"/>
<path d="M1375.05 175.75V271.61H1349.63V175.75H1375.05ZM1376.69 151.97C1376.69 159.92 1370.25 166.36 1362.3 166.36C1354.35 166.36 1347.91 159.92 1347.91 151.97C1347.91 144.02 1354.35 137.58 1362.3 137.58C1370.25 137.58 1376.69 144.02 1376.69 151.97Z" fill="#00AEEF"/>
<path d="M1472.66 210.141H1446.98C1446.51 206.561 1445.31 203.341 1443.37 200.471C1440.56 196.601 1436.19 194.671 1430.27 194.671C1421.83 194.671 1416.05 198.861 1412.94 207.251C1411.3 211.711 1410.48 217.631 1410.48 225.011C1410.48 232.391 1411.3 237.701 1412.94 241.981C1415.93 249.951 1421.56 253.941 1429.83 253.941C1435.69 253.941 1439.86 252.361 1442.32 249.191C1444.78 246.021 1446.28 241.921 1446.81 236.881H1472.4C1471.81 244.501 1469.06 251.711 1464.13 258.511C1456.27 269.471 1444.64 274.961 1429.22 274.961C1413.8 274.961 1402.46 270.391 1395.19 261.241C1387.92 252.091 1384.28 240.221 1384.28 225.621C1384.28 209.151 1388.3 196.331 1396.33 187.191C1404.36 178.041 1415.44 173.471 1429.57 173.471C1441.59 173.471 1451.42 176.171 1459.08 181.561C1466.73 186.951 1471.26 196.481 1472.67 210.141H1472.66Z" fill="#00AEEF"/>
<path d="M754.34 177.681H779.13V282.221C779.13 291.791 777.25 298.861 773.48 303.441C769.71 308.021 762.32 310.311 751.3 310.311C750.55 310.311 749.43 310.281 747.95 310.221C746.47 310.161 744.63 310.101 742.43 310.051V290.221C743.82 290.341 744.81 290.411 745.39 290.441C745.97 290.471 746.49 290.481 746.96 290.481C749.4 290.481 751.24 289.891 752.48 288.701C753.73 287.511 754.35 285.211 754.35 281.791V177.691L754.34 177.681Z" fill="#0138A1"/>
<path d="M766.37 167.96C774.234 167.96 780.61 161.585 780.61 153.72C780.61 145.856 774.234 139.48 766.37 139.48C758.505 139.48 752.13 145.856 752.13 153.72C752.13 161.585 758.505 167.96 766.37 167.96Z" fill="#0138A1"/>
<path d="M1465.95 151.36V145.57L1491.64 145.61V151.4L1482.24 151.39L1482.2 176.94H1475.31L1475.35 151.38H1465.96L1465.95 151.36Z" fill="#00AEEF"/>
<path d="M1504.94 145.62L1512.24 167.19H1512.33L1519.3 145.65H1529L1528.95 177.01H1522.5L1522.53 154.79H1522.44L1514.72 176.99H1509.41L1501.76 154.98H1501.67L1501.64 176.97H1495.19L1495.24 145.62H1504.94Z" fill="#00AEEF"/>
</svg>
